<svg width="1627" height="663" viewBox="0 0 1627 663" fill="none" xmlns="http://www.w3.org/2000/svg">
<g filter="url(#filter0_g_10_52)">
<path d="M254.407 610.757C209.694 610.757 170.27 598.417 136.935 573.897C104.402 550.178 80.3626 517.004 65.6185 475.175C50.5539 432.706 46.387 384.627 53.118 332.542C59.849 280.457 76.5163 232.218 102.318 189.909C127.96 148.08 160.654 114.906 199.437 91.508C239.022 67.3084 282.133 55.1285 327.487 55.1285C372.841 55.1285 410.502 67.4687 443.196 91.9888C475.088 115.708 498.647 148.722 513.23 190.229C527.814 232.539 531.821 280.136 525.25 331.741C514.032 417.802 479.896 488.156 423.804 540.883C374.764 587.038 317.871 610.437 254.728 610.437L254.407 610.757ZM312.102 142.952C267.709 142.952 231.329 161.863 200.719 200.967C173.635 235.263 156.487 279.816 149.436 333.343C141.262 395.846 149.436 443.443 174.757 478.541C195.912 508.029 226.201 522.933 265.145 522.933C311.46 522.933 348.321 504.824 377.809 467.643C403.932 434.789 420.919 390.076 428.131 334.626C436.305 271.803 427.811 222.282 403.13 187.665C382.296 158.017 351.686 142.952 312.102 142.952Z" fill="#71767C" fill-opacity="0.25"/>
<path d="M644.004 612.52C607.144 612.52 574.45 606.43 546.405 594.41C520.923 583.352 500.57 567.967 486.146 548.575C473.966 532.068 464.35 509.471 457.78 481.906L455.055 470.367L548.167 430.302L550.892 443.283C557.463 475.336 569.643 497.772 587.271 510.273C602.657 521.01 625.093 526.299 654.101 526.299C686.794 526.299 712.917 518.446 731.988 503.061C748.174 489.919 757.309 473.252 760.194 451.777C763.079 430.302 758.752 416.039 747.053 406.102C734.392 394.724 705.064 382.704 660.191 370.524C601.695 356.581 561.79 339.273 541.116 319.08C514.993 293.919 504.736 258.501 510.666 214.108C517.557 162.504 540.475 123.24 580.701 94.3926C614.676 70.193 656.505 58.0131 705.064 58.0131C753.623 58.0131 788.08 66.507 814.683 83.1743C839.364 98.5594 859.076 122.919 873.499 155.773L878.788 167.953L791.285 208.499L786.798 198.723C777.663 178.53 766.444 164.267 753.143 156.414C739.681 148.401 720.289 144.394 695.608 144.394C668.204 144.394 646.408 150.965 630.863 163.946C617.881 174.684 610.349 189.107 607.785 208.018C605.221 226.929 610.349 239.75 622.85 249.046C635.671 258.18 661.312 267.476 697.371 276.13C757.79 290.553 799.458 308.342 821.414 329.016C852.024 358.184 863.723 396.647 856.992 446.488C849.46 502.259 824.459 544.248 780.547 574.538C743.687 600.019 697.852 612.84 644.004 612.84V612.52Z" fill="#71767C" fill-opacity="0.25"/>
<path d="M805.709 597.936L870.615 50H1030.08C1104.12 50 1158.29 77.7253 1191.3 132.695C1219.99 180.133 1229.76 244.238 1220.31 323.728C1209.25 416.519 1178.48 487.676 1128.48 535.113C1084.89 576.942 1029.27 598.096 962.926 598.096H805.548L805.709 597.936ZM902.827 509.151H978.792C1023.99 509.151 1060.04 491.522 1086.01 456.585C1109.41 425.334 1124.79 380.46 1131.52 323.407C1139.21 258.982 1132 210.422 1110.21 179.171C1091.14 151.766 1062.29 138.625 1022.22 138.625H946.899L902.988 509.151H902.827Z" fill="#71767C" fill-opacity="0.25"/>
<path d="M1343.07 613C1277.52 613 1228.32 585.755 1197.23 531.907C1173.19 490.4 1166.46 430.141 1177.36 352.895C1190.82 256.737 1222.55 181.254 1271.43 128.688C1315.18 81.571 1368.23 57.5317 1429.13 57.5317C1504.77 57.5317 1553.17 95.5138 1573.04 170.516L1576.09 182.216L1483.46 218.755L1480.09 207.217C1473.04 183.337 1464.55 166.83 1454.77 157.856C1445.64 149.522 1432.17 145.195 1414.54 145.195C1384.74 145.195 1342.43 160.42 1311.02 233.179L1290.02 281.578L1339.38 262.026C1359.73 253.853 1381.85 249.846 1404.77 249.846C1421.76 249.846 1437.78 251.609 1452.21 255.295L1465.03 258.5L1476.41 263.468C1497.72 272.924 1515.67 287.348 1530.09 306.579C1554.29 338.952 1563.27 379.658 1556.38 427.737C1548.04 486.553 1521.76 533.67 1478.01 567.966C1440.19 597.615 1394.67 612.679 1342.75 612.679L1343.07 613ZM1377.52 337.51C1349.8 337.51 1326.88 346.805 1307.97 365.876C1291.3 382.383 1281.05 403.858 1277.52 429.34C1273.19 459.95 1279.12 483.829 1295.79 502.099C1310.21 517.804 1329.45 525.337 1354.45 525.337C1381.85 525.337 1403.97 516.041 1422.08 496.97C1438.42 479.662 1448.36 458.027 1452.21 430.782C1456.53 399.852 1450.92 375.812 1435.7 359.145C1422.4 344.882 1403.01 337.67 1377.84 337.67L1377.52 337.51Z" fill="#71767C" fill-opacity="0.25"/>
</g>
<defs>
<filter id="filter0_g_10_52" x="0" y="0" width="1626.09" height="663" filterUnits="userSpaceOnUse" color-interpolation-filters="sRGB">
<feFlood flood-opacity="0" result="BackgroundImageFix"/>
<feBlend mode="normal" in="SourceGraphic" in2="BackgroundImageFix" result="shape"/>
<feTurbulence type="fractalNoise" baseFrequency="2 2" numOctaves="3" seed="7661" />
<feDisplacementMap in="shape" scale="100" xChannelSelector="R" yChannelSelector="G" result="displacedImage" width="100%" height="100%" />
<feMerge result="effect1_texture_10_52">
<feMergeNode in="displacedImage"/>
</feMerge>
</filter>
</defs>
</svg>
