<svg width="1222" height="663" viewBox="0 0 1222 663" fill="none" xmlns="http://www.w3.org/2000/svg">
<g filter="url(#filter0_g_172_659)">
<path d="M238.949 612.52C202.089 612.52 169.395 606.43 141.349 594.41C115.868 583.352 95.5144 567.967 81.0908 548.575C68.9109 532.068 59.2952 509.471 52.7245 481.906L50 470.367L143.112 430.302L145.837 443.283C152.407 475.336 164.587 497.772 182.216 510.273C197.601 521.01 220.038 526.299 249.046 526.299C281.739 526.299 307.862 518.446 326.933 503.061C343.119 489.919 352.254 473.252 355.139 451.777C358.024 430.302 353.697 416.039 341.997 406.102C329.337 394.724 300.009 382.704 255.135 370.524C196.64 356.581 156.735 339.273 136.061 319.08C109.938 293.919 99.6813 258.501 105.611 214.108C112.502 162.504 135.42 123.24 175.645 94.3926C209.621 70.193 251.449 58.0131 300.009 58.0131C348.568 58.0131 383.025 66.507 409.628 83.1743C434.308 98.5594 454.021 122.919 468.444 155.773L473.733 167.953L386.23 208.499L381.742 198.723C372.608 178.53 361.389 164.267 348.087 156.414C334.625 148.401 315.234 144.394 290.553 144.394C263.148 144.394 241.353 150.965 225.807 163.946C212.826 174.684 205.294 189.107 202.73 208.018C200.166 226.929 205.294 239.75 217.794 249.046C230.615 258.18 256.257 267.476 292.316 276.13C352.735 290.553 394.403 308.342 416.359 329.016C446.969 358.184 458.668 396.647 451.937 446.488C444.405 502.259 419.404 544.248 375.492 574.538C338.632 600.019 292.797 612.84 238.949 612.84V612.52Z" fill="#71767C" fill-opacity="0.25"/>
<path d="M400.653 597.936L465.559 50H625.02C699.061 50 753.23 77.7253 786.244 132.695C814.931 180.133 824.707 244.238 815.251 323.728C804.193 416.519 773.423 487.676 723.421 535.113C679.83 576.942 624.219 598.096 557.87 598.096H400.493L400.653 597.936ZM497.772 509.151H573.736C618.93 509.151 654.989 491.522 680.952 456.585C704.35 425.334 719.735 380.46 726.466 323.407C734.159 258.982 726.947 210.422 705.151 179.171C686.08 151.766 657.233 138.625 617.167 138.625H541.844L497.932 509.151H497.772Z" fill="#71767C" fill-opacity="0.25"/>
<path d="M938.012 613C872.465 613 823.264 585.755 792.174 531.907C768.134 490.4 761.403 430.141 772.301 352.895C785.763 256.737 817.495 181.254 866.375 128.688C910.126 81.571 963.173 57.5317 1024.07 57.5317C1099.72 57.5317 1148.12 95.5138 1167.99 170.516L1171.03 182.216L1078.4 218.755L1075.04 207.217C1067.98 183.337 1059.49 166.83 1049.71 157.856C1040.58 149.522 1027.12 145.195 1009.49 145.195C979.68 145.195 937.371 160.42 905.96 233.179L884.965 281.578L934.326 262.026C954.679 253.853 976.795 249.846 999.713 249.846C1016.7 249.846 1032.73 251.609 1047.15 255.295L1059.97 258.5L1071.35 263.468C1092.66 272.924 1110.61 287.348 1125.04 306.579C1149.24 338.952 1158.21 379.658 1151.32 427.737C1142.99 486.553 1116.7 533.67 1072.95 567.966C1035.13 597.615 989.616 612.679 937.692 612.679L938.012 613ZM972.468 337.51C944.743 337.51 921.826 346.805 902.915 365.876C886.247 382.383 875.991 403.858 872.465 429.34C868.138 459.95 874.068 483.829 890.735 502.099C905.158 517.804 924.39 525.337 949.391 525.337C976.795 525.337 998.912 516.041 1017.02 496.97C1033.37 479.662 1043.3 458.027 1047.15 430.782C1051.48 399.852 1045.87 375.812 1030.64 359.145C1017.34 344.882 997.95 337.67 972.789 337.67L972.468 337.51Z" fill="#71767C" fill-opacity="0.25"/>
</g>
<defs>
<filter id="filter0_g_172_659" x="0" y="0" width="1221.03" height="663" filterUnits="userSpaceOnUse" color-interpolation-filters="sRGB">
<feFlood flood-opacity="0" result="BackgroundImageFix"/>
<feBlend mode="normal" in="SourceGraphic" in2="BackgroundImageFix" result="shape"/>
<feTurbulence type="fractalNoise" baseFrequency="2 2" numOctaves="3" seed="7661" />
<feDisplacementMap in="shape" scale="100" xChannelSelector="R" yChannelSelector="G" result="displacedImage" width="100%" height="100%" />
<feMerge result="effect1_texture_172_659">
<feMergeNode in="displacedImage"/>
</feMerge>
</filter>
</defs>
</svg>
