<?xml version="1.0" encoding="UTF-8"?>
<svg id="Layer_1" data-name="Layer 1" xmlns="http://www.w3.org/2000/svg" xmlns:xlink="http://www.w3.org/1999/xlink" viewBox="0 0 73.41 45.61">
  <defs>
    <filter id="outer-glow-1" filterUnits="userSpaceOnUse">
      <feOffset dx="0" dy="0"/>
      <feGaussianBlur result="blur" stdDeviation="13"/>
      <feFlood flood-color="#fff" flood-opacity=".75"/>
      <feComposite in2="blur" operator="in"/>
      <feComposite in="SourceGraphic"/>
    </filter>
  </defs>
  <path d="M12.38,34.73c-2.41,0-4.56-.37-6.39-1.1-1.67-.67-3-1.6-3.95-2.78-.8-1.01-1.43-2.37-1.86-4.05l-.18-.7,6.1-2.43.17.79c.43,1.94,1.23,3.31,2.38,4.07,1.01.65,2.47.97,4.37.97,2.14,0,3.85-.47,5.1-1.41,1.06-.79,1.66-1.81,1.85-3.11s-.1-2.17-.86-2.77c-.83-.69-2.75-1.42-5.69-2.16-3.83-.85-6.44-1.9-7.8-3.13-1.71-1.53-2.38-3.67-1.99-6.37.45-3.14,1.95-5.51,4.59-7.27,2.22-1.46,4.97-2.21,8.14-2.21s5.43.51,7.17,1.53c1.61.93,2.91,2.41,3.85,4.41l.35.74-5.73,2.46-.29-.6c-.59-1.23-1.33-2.09-2.2-2.57-.88-.49-2.15-.73-3.77-.73-1.8,0-3.23.4-4.24,1.19-.85.65-1.34,1.53-1.51,2.67s.16,1.92.99,2.49c.84.56,2.52,1.12,4.88,1.65,3.95.88,6.69,1.96,8.12,3.21,2.01,1.77,2.77,4.1,2.33,7.13-.49,3.39-2.13,5.93-5,7.77-2.41,1.55-5.42,2.33-8.94,2.33Z" style="fill: #02894b; stroke-width: 0px;"/>
  <path d="M22.97,33.84L27.23.59h10.44c4.84,0,8.4,1.69,10.56,5.01,1.88,2.87,2.51,6.77,1.9,11.59-.72,5.63-2.74,9.95-6.01,12.83-2.85,2.53-6.5,3.82-10.83,3.82h-10.31ZM29.33,28.45h4.97c2.96,0,5.32-1.07,7.02-3.19,1.53-1.9,2.54-4.62,2.98-8.08.5-3.91.03-6.86-1.4-8.76-1.25-1.66-3.13-2.46-5.76-2.46h-4.93l-2.88,22.49Z" style="fill: #9d2f92; stroke-width: 0px;"/>
  <path d="M58.14,34.75c-4.29,0-7.51-1.65-9.55-4.92-1.57-2.52-2.01-6.17-1.3-10.86.89-5.84,2.96-10.42,6.16-13.61,2.87-2.86,6.34-4.31,10.33-4.31,4.95,0,8.12,2.31,9.42,6.85l.2.71-6.06,2.22-.22-.7c-.46-1.45-1.02-2.45-1.66-3-.6-.51-1.48-.77-2.63-.77-1.95,0-4.72.93-6.78,5.34l-1.38,2.94,3.23-1.19c1.34-.49,2.78-.74,4.28-.74,1.11,0,2.16.11,3.1.33l.84.19.75.31c1.39.57,2.57,1.45,3.51,2.62,1.59,1.96,2.17,4.43,1.73,7.35-.54,3.57-2.27,6.43-5.13,8.51-2.48,1.8-5.46,2.72-8.85,2.72ZM60.4,18.04c-1.82,0-3.31.56-4.56,1.72-1.09,1-1.76,2.3-2,3.85-.28,1.86.11,3.31,1.19,4.42.95.95,2.2,1.41,3.84,1.41,1.8,0,3.24-.56,4.43-1.72,1.07-1.05,1.72-2.37,1.97-4.02.28-1.88-.08-3.34-1.08-4.35-.87-.87-2.15-1.31-3.79-1.31Z" style="fill: #077cc1; stroke-width: 0px;"/>
  <g>
    <path d="M5.83,45.7c-.42,0-.79-.07-1.11-.21s-.6-.33-.82-.59-.39-.56-.51-.92-.17-.76-.17-1.2.06-.88.19-1.24.32-.68.56-.94.54-.45.89-.59.74-.2,1.17-.2c.49,0,.92.09,1.3.29s.69.54.93,1.01l-1.1.45c-.13-.27-.29-.47-.48-.58s-.44-.18-.74-.18c-.47,0-.83.17-1.08.52s-.37.83-.37,1.47.13,1.11.38,1.45.62.5,1.11.5c.26,0,.5-.05.7-.16s.36-.25.48-.44.17-.41.17-.65v-.05h-1.23v-.91h2.42v3.11h-.68l-.21-.86c-.23.33-.49.57-.78.72s-.63.22-1.01.22Z" style="fill: #231f20; stroke-width: 0px;"/>
    <path d="M11.62,44.75c.34,0,.61-.07.8-.2s.29-.32.29-.55c0-.11-.02-.2-.06-.28s-.11-.15-.22-.21-.26-.12-.46-.18-.46-.12-.78-.19c-.42-.09-.76-.21-1.01-.35s-.44-.31-.55-.52-.17-.44-.17-.71c0-.37.08-.68.25-.94s.41-.46.73-.6.7-.21,1.14-.21c.47,0,.88.08,1.24.26s.67.43.92.77l-1.02.55c-.15-.21-.32-.37-.49-.47s-.39-.15-.64-.15c-.31,0-.54.06-.7.17s-.23.27-.23.48c0,.1.02.19.06.26s.11.13.21.19.25.11.44.16.43.12.74.19c.34.08.62.17.85.27s.41.22.55.36.24.29.3.47.09.38.09.6c0,.38-.09.7-.27.96s-.44.47-.78.61-.75.21-1.24.21c-.61,0-1.11-.11-1.5-.33s-.7-.57-.92-1.03l1.09-.45c.12.3.28.51.49.65s.48.21.83.21Z" style="fill: #231f20; stroke-width: 0px;"/>
    <path d="M13.68,46.79l2.34-7.39h1.06l-2.34,7.39h-1.07Z" style="fill: #231f20; stroke-width: 0px;"/>
    <path d="M19.71,39.8c.76,0,1.4.26,1.9.77.54.55.81,1.27.81,2.16s-.27,1.64-.81,2.2c-.5.51-1.14.77-1.91.77s-1.4-.26-1.9-.77c-.53-.55-.8-1.29-.8-2.2,0-.86.27-1.58.82-2.15.51-.52,1.14-.78,1.9-.78ZM19.71,40.79c-.49,0-.86.2-1.12.61-.21.34-.32.79-.32,1.33,0,.69.15,1.21.46,1.56.25.29.58.43.98.43.53,0,.91-.22,1.16-.67.19-.34.28-.77.28-1.29,0-.61-.13-1.08-.38-1.43-.26-.36-.61-.54-1.06-.54Z" style="fill: #231f20; stroke-width: 0px;"/>
    <path d="M25.4,44.75c.34,0,.61-.07.8-.2s.29-.32.29-.55c0-.11-.02-.2-.06-.28s-.11-.15-.22-.21-.26-.12-.46-.18-.46-.12-.78-.19c-.42-.09-.76-.21-1.01-.35s-.44-.31-.55-.52-.17-.44-.17-.71c0-.37.08-.68.25-.94s.41-.46.73-.6.7-.21,1.14-.21c.47,0,.88.08,1.24.26s.67.43.92.77l-1.02.55c-.15-.21-.32-.37-.49-.47s-.39-.15-.64-.15c-.31,0-.54.06-.7.17s-.23.27-.23.48c0,.1.02.19.06.26s.11.13.21.19.25.11.44.16.43.12.74.19c.34.08.62.17.85.27s.41.22.55.36.24.29.3.47.09.38.09.6c0,.38-.09.7-.27.96s-.44.47-.78.61-.75.21-1.24.21c-.61,0-1.11-.11-1.5-.33s-.7-.57-.92-1.03l1.09-.45c.12.3.28.51.49.65s.48.21.83.21Z" style="fill: #231f20; stroke-width: 0px;"/>
    <path d="M28.8,45.61v-5.72h1.91c.69,0,1.26.15,1.71.45.74.5,1.11,1.29,1.11,2.39s-.38,1.95-1.15,2.44c-.45.29-1.02.44-1.71.44h-1.87ZM30.02,44.63h.71c.47,0,.83-.14,1.1-.43.29-.32.43-.8.43-1.45s-.14-1.12-.43-1.44c-.26-.29-.63-.43-1.1-.43h-.7v3.75Z" style="fill: #231f20; stroke-width: 0px;"/>
    <path d="M35.43,42.56c.25-.47.61-.7,1.11-.7.46,0,.84.17,1.13.5.29.33.43.77.43,1.3,0,.61-.18,1.11-.54,1.49-.34.36-.79.54-1.34.54-.73,0-1.27-.31-1.62-.93-.26-.45-.39-1.07-.39-1.86,0-1.07.22-1.88.65-2.41.37-.46.88-.69,1.53-.69.48,0,.85.14,1.13.41.15.14.28.35.38.63l-.96.47c-.05-.17-.11-.29-.17-.37-.1-.12-.23-.18-.41-.18-.43,0-.72.29-.86.87-.06.24-.09.55-.1.94ZM36.22,42.73c-.23,0-.4.11-.52.32-.11.2-.17.43-.17.7,0,.28.06.52.17.72.12.21.29.32.52.32s.4-.11.52-.32c.11-.2.17-.44.17-.71s-.06-.51-.17-.71c-.12-.21-.29-.32-.52-.32Z" style="fill: #231f20; stroke-width: 0px;"/>
    <path d="M38.79,43.53v-1.07h1.86v1.07h-1.86Z" style="fill: #231f20; stroke-width: 0px;"/>
    <path d="M45.03,44.49h-2.33l-.38,1.12h-1.15l2.09-5.72h1.4l2.06,5.72h-1.3l-.38-1.12ZM44.73,43.6l-.86-2.55-.87,2.55h1.73Z" style="fill: #231f20; stroke-width: 0px;"/>
    <path d="M47.44,45.61v-5.72h2.41c.72,0,1.25.2,1.61.61.28.32.43.74.43,1.24,0,.54-.17.96-.52,1.27-.35.31-.84.47-1.46.47h-1.23v2.13h-1.22ZM48.66,42.57h1.11c.32,0,.55-.09.71-.26.13-.14.2-.34.2-.61,0-.55-.3-.83-.9-.83h-1.12v1.7Z" style="fill: #231f20; stroke-width: 0px;"/>
    <path d="M55.55,44.49h-2.33l-.38,1.12h-1.15l2.09-5.72h1.4l2.06,5.72h-1.3l-.38-1.12ZM55.25,43.6l-.86-2.55-.87,2.55h1.73Z" style="fill: #231f20; stroke-width: 0px;"/>
    <path d="M60.47,45.7c-.41,0-.78-.07-1.1-.21s-.6-.33-.83-.59-.41-.56-.53-.92-.18-.76-.18-1.21.06-.85.19-1.21.31-.68.54-.94.51-.46.83-.61.67-.21,1.06-.21c.53,0,.99.12,1.36.35s.67.59.88,1.07l-1.07.46c-.13-.32-.29-.54-.47-.68s-.42-.21-.71-.21c-.42,0-.75.17-.99.51s-.35.82-.35,1.45.12,1.11.36,1.45.58.51,1.01.51c.3,0,.55-.07.74-.22s.35-.39.48-.71l1.09.46c-.21.48-.51.85-.9,1.09s-.85.37-1.41.37Z" style="fill: #231f20; stroke-width: 0px;"/>
    <path d="M63.46,45.61v-.95c.64-.47,1.13-.88,1.46-1.22.62-.64.93-1.26.93-1.88,0-.22-.04-.41-.13-.56-.1-.17-.25-.26-.46-.26-.25,0-.45.15-.59.45-.05.11-.09.26-.13.44l-1.08-.26c.25-1.05.87-1.57,1.85-1.57.52,0,.93.15,1.25.44.35.32.52.77.52,1.35,0,.71-.28,1.39-.84,2.02-.27.3-.68.65-1.23,1.05h2.14v.95h-3.7Z" style="fill: #231f20; stroke-width: 0px;"/>
  </g>
</svg>