<svg width="150" height="88" viewBox="0 0 150 88" fill="none" xmlns="http://www.w3.org/2000/svg">
<g filter="url(#filter0_d_10_129)">
<path d="M39.0704 61.8565C36.2113 61.8565 33.6904 61.0675 31.5589 59.4996C29.4786 57.9829 27.9415 55.8617 26.9987 53.187C26.0354 50.4714 25.769 47.3971 26.1994 44.0666C26.6298 40.7361 27.6955 37.6516 29.3454 34.9462C30.985 32.2716 33.0755 30.1503 35.5555 28.6541C38.0866 27.1067 40.8433 26.3279 43.7434 26.3279C46.6434 26.3279 49.0516 27.117 51.1422 28.6849C53.1814 30.2015 54.6878 32.3126 55.6204 34.9667C56.5529 37.6721 56.8091 40.7156 56.389 44.0154C55.6716 49.5184 53.4889 54.0171 49.9022 57.3886C46.7664 60.3399 43.1285 61.836 39.0909 61.836L39.0704 61.8565ZM42.7493 31.9436C39.9107 31.9436 37.5845 33.1529 35.6272 35.6533C33.8954 37.8463 32.7989 40.6951 32.348 44.1178C31.8253 48.1144 32.348 51.158 33.9671 53.4022C35.3198 55.2878 37.2566 56.2408 39.7468 56.2408C42.7083 56.2408 45.0653 55.0828 46.9509 52.7054C48.6212 50.6046 49.7075 47.7455 50.1686 44.1998C50.6913 40.1828 50.1481 37.0162 48.57 34.8027C47.2378 32.9069 45.2805 31.9436 42.7493 31.9436Z" fill="#077CC1"/>
<path d="M63.9724 61.9795C61.6154 61.9795 59.5249 61.5901 57.7315 60.8215C56.1022 60.1144 54.8007 59.1307 53.8784 57.8907C53.0996 56.8352 52.4847 55.3903 52.0646 53.6277L51.8904 52.8898L57.8443 50.3279L58.0185 51.158C58.4386 53.2075 59.2175 54.6422 60.3447 55.4415C61.3285 56.1281 62.7631 56.4663 64.618 56.4663C66.7085 56.4663 68.3789 55.9641 69.5983 54.9804C70.6333 54.14 71.2175 53.0743 71.4019 51.7011C71.5864 50.3279 71.3097 49.4159 70.5616 48.7805C69.752 48.0529 67.8767 47.2844 65.0074 46.5055C61.267 45.614 58.7153 44.5073 57.3934 43.2161C55.723 41.6072 55.0672 39.3424 55.4463 36.5038C55.887 33.2041 57.3524 30.6934 59.9245 28.8488C62.097 27.3014 64.7717 26.5226 67.8767 26.5226C70.9818 26.5226 73.185 27.0658 74.8861 28.1315C76.4643 29.1153 77.7247 30.6729 78.647 32.7737L78.9852 33.5525L73.3899 36.1452L73.103 35.5201C72.5189 34.2289 71.8016 33.3168 70.951 32.8147C70.0902 32.3023 68.8502 32.0461 67.2721 32.0461C65.5198 32.0461 64.1261 32.4663 63.1321 33.2963C62.302 33.9829 61.8204 34.9052 61.6564 36.1144C61.4924 37.3237 61.8204 38.1435 62.6197 38.7378C63.4395 39.3219 65.0791 39.9163 67.3848 40.4697C71.2482 41.392 73.9126 42.5295 75.3165 43.8514C77.2738 45.7165 78.0219 48.1759 77.5915 51.3629C77.1099 54.9291 75.5112 57.614 72.7034 59.5508C70.3464 61.1802 67.4156 62 63.9724 62V61.9795Z" fill="#02894B"/>
<path d="M74.3223 61.0367L78.4726 26H88.669C93.4034 26 96.8671 27.7728 98.9781 31.2878C100.812 34.3211 101.438 38.4202 100.833 43.503C100.126 49.4364 98.1583 53.9863 94.961 57.0196C92.1737 59.6943 88.6177 61.047 84.3752 61.047H74.312L74.3223 61.0367ZM80.5221 55.3698H85.3795C88.2693 55.3698 90.575 54.2425 92.2352 52.0085C93.7313 50.0102 94.7151 47.1409 95.1455 43.4927C95.6374 39.3732 95.1762 36.2681 93.7825 34.2699C92.5631 32.5175 90.7185 31.6772 88.1566 31.6772H83.3402L80.5323 55.3698H80.5221Z" fill="#9D2F92"/>
<path d="M108.672 62C104.481 62 101.335 60.2579 99.3471 56.8147C97.8099 54.1605 97.3795 50.3074 98.0764 45.368C98.9372 39.2195 100.966 34.3928 104.092 31.0316C106.889 28.0188 110.281 26.4816 114.175 26.4816C119.012 26.4816 122.107 28.9103 123.378 33.7062L123.573 34.4543L117.649 36.7908L117.434 36.0529C116.983 34.526 116.44 33.4705 115.815 32.8967C115.231 32.3638 114.37 32.0871 113.243 32.0871C111.337 32.0871 108.631 33.0606 106.623 37.7131L105.28 40.8078L108.437 39.5576C109.738 39.035 111.152 38.7788 112.618 38.7788C113.704 38.7788 114.729 38.8915 115.651 39.1272L116.471 39.3322L117.198 39.6499C118.561 40.2545 119.709 41.1768 120.631 42.4065C122.179 44.4765 122.753 47.0794 122.312 50.1537C121.779 53.9146 120.099 56.9274 117.301 59.1204C114.883 61.0162 111.972 61.9795 108.652 61.9795L108.672 62ZM110.876 44.3843C109.103 44.3843 107.637 44.9786 106.428 46.1981C105.362 47.2536 104.707 48.6268 104.481 50.2562C104.204 52.2135 104.584 53.7404 105.649 54.9086C106.572 55.9129 107.801 56.3945 109.4 56.3945C111.152 56.3945 112.567 55.8001 113.725 54.5807C114.77 53.4739 115.405 52.0905 115.651 50.3484C115.928 48.3706 115.569 46.8335 114.596 45.7677C113.745 44.8557 112.505 44.3945 110.896 44.3945L110.876 44.3843Z" fill="#077CC1"/>
</g>
<defs>
<filter id="filter0_d_10_129" x="0" y="0" width="149.573" height="88" filterUnits="userSpaceOnUse" color-interpolation-filters="sRGB">
<feFlood flood-opacity="0" result="BackgroundImageFix"/>
<feColorMatrix in="SourceAlpha" type="matrix" values="0 0 0 0 0 0 0 0 0 0 0 0 0 0 0 0 0 0 127 0" result="hardAlpha"/>
<feOffset/>
<feGaussianBlur stdDeviation="13"/>
<feColorMatrix type="matrix" values="0 0 0 0 1 0 0 0 0 1 0 0 0 0 1 0 0 0 0.75 0"/>
<feBlend mode="normal" in2="BackgroundImageFix" result="effect1_dropShadow_10_129"/>
<feBlend mode="normal" in="SourceGraphic" in2="effect1_dropShadow_10_129" result="shape"/>
</filter>
</defs>
</svg>
