<svg width="47" height="60" viewBox="0 0 47 60" fill="none" xmlns="http://www.w3.org/2000/svg">
<path d="M40.8685 35.2121L45.2113 32.5918L43.9876 27.6591L47 23.5714L43.9876 19.4837L45.2113 14.5509L40.8685 11.9306L40.1173 6.90355L35.1055 6.15011L32.4932 1.79412L27.5753 3.02151L23.5 0L19.4247 3.02151L14.5068 1.79412L11.8945 6.15011L6.88265 6.90355L6.13149 11.9306L1.78869 14.5509L3.01237 19.4837L0 23.5714L3.01237 27.6591L1.78869 32.5918L6.13149 35.2121L6.88265 40.2392L8.05507 40.4154L2.86129 56.0441H10.7001L16.6162 60L21.4053 45.5894L23.5 47.1427L25.5947 45.5894L30.3838 60L36.2999 56.0441H44.1387L38.9449 40.4154L40.1173 40.2392L40.8685 35.2121ZM14.9674 55.1809L11.6336 52.9515H7.13934L11.1507 40.8809L11.8945 40.9926L14.5068 45.3486L18.5718 44.3338L14.967 55.1805L14.9674 55.1809ZM20.0899 40.7684L15.9741 41.7955L13.788 38.1505L9.59402 37.5196L8.96503 33.3128L5.33099 31.1201L6.35503 26.9918L3.83406 23.5714L6.35503 20.1509L5.33099 16.0226L8.96503 13.8299L9.59402 9.62315L13.788 8.99225L15.9741 5.34718L20.0899 6.37433L23.5 3.8457L26.9101 6.37433L31.0259 5.34718L33.212 8.99225L37.406 9.62315L38.035 13.8299L41.669 16.0226L40.645 20.1509L43.1659 23.5714L40.645 26.9918L41.669 31.1201L38.035 33.3128L37.406 37.5196L33.212 38.1505L31.0259 41.7955L26.9101 40.7684L23.5 43.297L20.0899 40.7684ZM39.8607 52.9515H35.3664L32.0326 55.1809L28.4279 44.3342L32.4928 45.349L35.1051 40.993L35.8489 40.8813L39.8603 52.9519L39.8607 52.9515ZM30.1884 26.0188L36.1761 19.6255L27.5749 18.0375L23.5285 10.2885L19.4782 18.3251L11.0008 19.6294L16.842 25.9948L15.9013 34.5943L23.4985 30.6029L31.5104 34.6651L30.1884 26.0188ZM27.5549 29.1938L23.4738 27.1244L19.5977 29.1609L20.0602 24.9341L17.1893 21.8055L21.5144 21.1402L23.5775 17.0467L25.5407 20.8058L30.0593 21.64L26.914 24.9986L27.5549 29.1938Z" fill="black"/>
</svg>
