<svg width="65" height="69" viewBox="0 0 65 69" fill="none" xmlns="http://www.w3.org/2000/svg">
<path d="M40.6996 63.9497V67.8999H23.5004V63.9497H40.6996ZM42.3588 57.2505V61.1997H21.8412V57.2505H42.3588ZM14.8461 46.8706L17.183 49.2505L17.391 49.4634L17.1811 49.6733L11.2504 55.6021L11.0356 55.8159L10.8236 55.6001L8.48672 53.2202L8.27872 53.0083L8.48868 52.7983L14.4203 46.8687L14.6342 46.6548L14.8461 46.8706ZM49.7797 46.8687L55.7113 52.7983L55.9213 53.0083L55.7133 53.2202L53.3764 55.6001L53.1645 55.8159L52.9496 55.6021L47.019 49.6733L46.809 49.4634L47.017 49.2505L49.3539 46.8706L49.5658 46.6548L49.7797 46.8687ZM32.1 12.0249C37.491 12.025 42.5633 14.0947 46.3803 17.8521C50.2085 21.6207 52.3188 26.6369 52.3188 31.9741C52.3187 37.3115 50.2086 42.3275 46.3803 46.0962C45.7919 46.6756 45.2251 47.1516 44.6859 47.604C44.4998 47.7601 44.3122 47.9173 44.1205 48.0815H44.1195C44.0099 48.1753 43.8842 48.2779 43.7504 48.3862C43.4669 48.6158 43.1074 48.9076 42.8188 49.2173C42.675 49.3715 42.5564 49.5228 42.475 49.6646C42.3929 49.8077 42.3589 49.9231 42.3588 50.0122V54.5005H38.4398V50.0122C38.4401 47.6006 40.3528 46.0703 41.2953 45.3071C41.4045 45.2187 41.4999 45.1416 41.5815 45.0718C41.785 44.8975 41.9837 44.7309 42.1781 44.5679C42.6918 44.137 43.1665 43.738 43.641 43.271C46.71 40.2498 48.3988 36.2388 48.3988 31.9741C48.3988 27.7096 46.71 23.6985 43.641 20.6772C40.5609 17.6453 36.4634 15.9751 32.1 15.9751C27.7364 15.9751 23.6388 17.6453 20.559 20.6772C17.4898 23.6985 15.8012 27.7096 15.8012 31.9741C15.8012 36.2388 17.49 40.2498 20.559 43.271C21.0336 43.738 21.5082 44.137 22.0219 44.5679C22.2163 44.7309 22.4152 44.8977 22.6186 45.0718C22.7003 45.1418 22.7956 45.2187 22.9047 45.3071C23.8472 46.0703 25.76 47.6006 25.7602 50.0122V54.5005H21.8412V50.0122C21.8411 49.9231 21.8071 49.8077 21.725 49.6646C21.6437 49.5228 21.525 49.3715 21.3813 49.2173C21.0926 48.9076 20.7331 48.6158 20.4496 48.3862C20.3157 48.2778 20.1894 48.1756 20.0795 48.0815C19.8879 47.9175 19.7002 47.7601 19.5141 47.604C18.9749 47.1516 18.4081 46.6756 17.8197 46.0962C13.9914 42.3275 11.8813 37.3115 11.8813 31.9741C11.8813 26.6369 13.9914 21.6207 17.8197 17.8521C21.6365 14.0947 26.7091 12.0249 32.1 12.0249ZM9.16153 30.4497V34.3999H0.300201V30.4497H9.16153ZM63.8998 30.4497V34.3999H55.0385V30.4497H63.8998ZM11.2494 8.35107L17.2309 14.3306L17.4418 14.5405L17.2328 14.7524L14.8969 17.1323L14.685 17.3491L14.4711 17.1343L8.48965 11.1548L8.27872 10.9448L8.4877 10.7329L10.8236 8.35303L11.0356 8.13721L11.2494 8.35107ZM53.3764 8.35303L55.7123 10.7329L55.9213 10.9448L55.7104 11.1548L49.7289 17.1343L49.515 17.3491L49.3031 17.1323L46.9672 14.7524L46.7582 14.5405L46.9691 14.3306L52.9506 8.35107L53.1645 8.13721L53.3764 8.35303ZM34.06 0.300293V9.2749H30.14V0.300293H34.06Z" fill="black" stroke="black" stroke-width="0.6"/>
</svg>
