<svg width="13" height="13" viewBox="0 0 13 13" fill="none" xmlns="http://www.w3.org/2000/svg">
<path d="M6.84668 0.0126953C10.1932 0.215359 12.8457 3.04175 12.8457 6.5C12.8457 10.0898 9.9876 12.9999 6.46191 13C4.03598 13 1.92595 12.0289 0.845703 10L6.46191 6.5V2.00781C6.44002 2.00865 6.41819 2.00877 6.39648 2.00977L6.35059 1.01074L6.30469 0.0126953C6.35675 0.0102989 6.40922 0.010538 6.46191 0.00878906V0C6.52169 1.24566e-06 6.58124 0.00224271 6.64062 0.00390625C6.70888 0.0026718 6.77756 -1.53403e-06 6.84668 0V0.0126953ZM2.74023 8.55273L0.951172 9.44727C0.868449 9.2818 0.791048 9.11549 0.71875 8.94922L1.63574 8.5498L2.55273 8.15137C2.61058 8.28442 2.6731 8.41845 2.74023 8.55273ZM2.06152 6.50195C2.10313 6.77112 2.16577 7.04914 2.25098 7.33301L1.29395 7.62012L0.335938 7.90723C0.225654 7.53976 0.141376 7.17173 0.0849609 6.80664L2.06152 6.50195ZM1.10449 4.68262L2.08301 4.8877C2.03118 5.13632 2.00299 5.40035 2 5.67773L0 5.65625C0.00430072 5.25645 0.0459709 4.86203 0.125977 4.47852L1.10449 4.68262ZM1.92969 2.90039L2.71191 3.52441C2.55553 3.72064 2.42479 3.93294 2.32031 4.16016L1.41211 3.74316L0.503906 3.3252C0.674767 2.95356 0.889429 2.60225 1.14844 2.27734L1.92969 2.90039ZM3.47461 1.68164L3.91602 2.5791C3.66516 2.70271 3.44409 2.8425 3.25 2.99414L2.63379 2.20605L2.01855 1.41797C2.32559 1.17808 2.6641 0.966534 3.03223 0.785156L3.47461 1.68164ZM5.36328 1.1084L5.51758 2.09668C5.2158 2.14358 4.93674 2.20598 4.68066 2.28223L4.39551 1.32422L4.11035 0.365234C4.45817 0.261683 4.825 0.179955 5.20996 0.120117L5.36328 1.1084Z" fill="white"/>
</svg>
