<svg width="64" height="33" viewBox="0 0 64 33" fill="none" xmlns="http://www.w3.org/2000/svg">
<path d="M10.7373 9.84961C14.3528 9.84961 17.2871 12.8367 17.2871 16.5C17.2871 18.6799 16.2448 20.6124 14.6436 21.8252C15.5761 22.2075 16.4534 22.7234 17.2451 23.3584L17.4131 23.4932L17.3047 23.6797C16.759 24.6148 16.2968 25.6052 15.9297 26.6416L15.7979 27.0127L15.5176 26.7354C14.2479 25.4772 12.5285 24.75 10.7373 24.75C6.97108 24.7501 3.90039 27.8645 3.90039 31.7002V32.75H0.25V31.7002C0.25 27.2328 2.97374 23.3996 6.8252 21.8213C5.22724 20.6082 4.1875 18.6772 4.1875 16.5C4.1875 12.8368 7.12186 9.84972 10.7373 9.84961ZM32 0.25C37.3525 0.25 41.7 4.67189 41.7002 10.0996C41.7002 13.7717 39.7094 16.9793 36.7666 18.6729C42.3869 20.6768 46.4248 26.119 46.4248 32.5V32.75H42.7754V32.5C42.7754 26.4586 37.9375 21.5498 32 21.5498C26.0625 21.5498 21.2246 26.4586 21.2246 32.5V32.75H17.5752V32.5C17.5752 26.1193 21.6126 20.677 27.2324 18.6729C24.29 16.9792 22.2998 13.7714 22.2998 10.0996C22.3 4.67189 26.6475 0.25 32 0.25ZM53.2627 9.84961C56.8781 9.84972 59.8125 12.8368 59.8125 16.5C59.8125 18.6775 58.7721 20.6083 57.1738 21.8213C61.0257 23.3994 63.75 27.2325 63.75 31.7002V32.75H60.0996V31.7002C60.0996 27.8645 57.0289 24.7501 53.2627 24.75C51.4713 24.75 49.7519 25.4772 48.4824 26.7354L48.2021 27.0127L48.0703 26.6416C47.7032 25.6052 47.241 24.6148 46.6953 23.6797L46.5869 23.4932L46.7549 23.3584C47.5464 22.7235 48.4232 22.2074 49.3555 21.8252C47.7545 20.6124 46.7129 18.6796 46.7129 16.5C46.7129 12.8367 49.6472 9.84961 53.2627 9.84961ZM10.7373 13.5498C9.14228 13.5499 7.83789 14.87 7.83789 16.5C7.83789 18.13 9.14228 19.4501 10.7373 19.4502C12.3324 19.4502 13.6377 18.1301 13.6377 16.5C13.6377 14.8699 12.3324 13.5498 10.7373 13.5498ZM53.2627 13.5498C51.6676 13.5498 50.3623 14.8699 50.3623 16.5C50.3623 18.1301 51.6676 19.4502 53.2627 19.4502C54.8577 19.4501 56.1621 18.13 56.1621 16.5C56.1621 14.87 54.8577 13.5499 53.2627 13.5498ZM32 3.9502C28.6681 3.9502 25.9504 6.70523 25.9502 10.0996C25.9502 13.4942 28.668 16.25 32 16.25C35.332 16.25 38.0498 13.4942 38.0498 10.0996C38.0496 6.70523 35.3319 3.9502 32 3.9502Z" fill="black" stroke="black" stroke-width="0.5"/>
</svg>
