<svg width="63" height="63" viewBox="0 0 63 63" fill="none" xmlns="http://www.w3.org/2000/svg">
<path d="M63 0V13.7812H59.0625V6.72181L48.6424 17.1429L45.8576 14.3581L56.2782 3.9375H49.2188V0H63ZM14.3576 45.8576L3.9375 56.2782V49.2188H0V63H13.7812V59.0625H6.72181L17.1424 48.6424L14.3576 45.8576ZM59.0625 56.2782L48.6424 45.8576L45.8576 48.6424L56.2782 59.0625H49.2188V63H63V49.2188H59.0625V56.2782ZM3.9375 6.72181L14.3576 17.1429L17.1424 14.3581L6.72181 3.9375H13.7812V0H0V13.7812H3.9375V6.72181ZM24.2014 10.4201L26.9861 13.2049L29.5312 10.6593V21.6562H33.4688V10.6593L36.0139 13.2049L38.7986 10.4201L31.5 3.12194L24.2014 10.4201ZM33.4688 52.3407V41.3438H29.5312V52.3407L26.9861 49.7951L24.2014 52.5799L31.5 59.8781L38.7986 52.5799L36.0139 49.7951L33.4688 52.3407ZM49.8005 36.0089L52.5745 38.8036L60.0508 31.3829L52.5518 24.1743L49.8232 27.0132L52.4431 29.5312H41.3438V33.4688H52.3599L49.8005 36.0089ZM13.1768 27.0132L10.4482 24.1743L2.9487 31.3829L10.4255 38.8036L13.1995 36.0089L10.6401 33.4688H21.6562V29.5312H10.5574L13.1768 27.0132Z" fill="black"/>
</svg>
