<svg width="111" height="111" viewBox="0 0 111 111" fill="none" xmlns="http://www.w3.org/2000/svg">
<path d="M78.9688 28.1537V21.165C84.1397 24.7175 88.4383 29.3958 91.5414 34.8483C94.6445 40.3009 96.4715 46.3858 96.885 52.6458H91.319C90.5983 43.1712 86.1584 34.3664 78.9688 28.1537ZM62.3438 11.0833H48.4896V16.625H62.3438V11.0833ZM62.3438 22.1667H48.4896V27.7083H62.3438V22.1667ZM73.4271 49.875H67.8854V52.6458H42.9479V49.875H37.4063V0H73.4271V49.875ZM67.8854 5.54167H42.9479V44.3333H67.8854V5.54167ZM62.3438 33.25H48.4896V38.7917H62.3438V33.25ZM36.0208 108.063H30.4792V110.833H5.54167V108.063H0V58.1875H36.0208V108.063ZM30.4792 63.7292H5.54167V102.521H30.4792V63.7292ZM24.9375 69.2708H11.0833V74.8125H24.9375V69.2708ZM24.9375 80.3542H11.0833V85.8958H24.9375V80.3542ZM24.9375 91.4375H11.0833V96.9792H24.9375V91.4375ZM99.75 69.2708H85.8958V74.8125H99.75V69.2708ZM110.833 108.063H105.292V110.833H80.3542V108.063H74.8125V58.1875H110.833V108.063ZM105.292 63.7292H80.3542V102.521H105.292V63.7292ZM99.75 80.3542H85.8958V85.8958H99.75V80.3542ZM99.75 91.4375H85.8958V96.9792H99.75V91.4375ZM31.8646 21.1643C26.694 24.7172 22.396 29.3957 19.2933 34.8484C16.1907 40.301 14.3642 46.3859 13.9511 52.6458H19.5032C20.2263 43.1678 24.6702 34.3609 31.8646 28.1482V21.1643ZM55.4167 91.4375C50.6611 91.4429 45.9519 90.5034 41.5625 88.6736V94.6156C46.0126 96.1853 50.6978 96.9846 55.4167 96.9792C60.1355 96.9846 64.8207 96.1853 69.2708 94.6156V88.6729C64.8815 90.503 60.1723 91.4427 55.4167 91.4375Z" fill="#007BC0"/>
</svg>
