<svg width="111" height="106" viewBox="0 0 111 106" fill="none" xmlns="http://www.w3.org/2000/svg">
<path d="M53.8283 22.8213C61.7231 15.6885 69.8873 8.3125 85.8958 8.3125V13.8542C72.0195 13.8542 64.9878 20.207 57.5433 26.9332C49.5591 34.1471 41.3034 41.6061 24.9375 41.6061V36.0645C39.1706 36.0645 46.2909 29.632 53.8283 22.8213ZM57.7213 64.7177C49.7219 56.0588 41.4496 47.1042 24.9375 47.1042V52.6458C39.0244 52.6458 46.1288 60.3363 53.6509 68.4784C61.561 77.0416 69.7412 85.8958 85.8958 85.8958V80.3542C72.1657 80.3542 65.1492 72.7593 57.7213 64.7177ZM24.9375 96.9792H85.8958V91.4375H24.9375V96.9792ZM0 27.7083H19.3958V60.9583H0V27.7083ZM5.54167 55.4167H13.8542V33.25H5.54167V55.4167ZM91.4375 72.0417H110.833V105.292H91.4375V72.0417ZM96.9792 99.75H105.292V77.5833H96.9792V99.75ZM0 83.125H19.3958V105.292H0V83.125ZM5.54167 99.75H13.8542V88.6667H5.54167V99.75ZM110.833 0V22.1667H91.4375V0H110.833ZM105.292 5.54167H96.9792V16.625H105.292V5.54167Z" fill="#007BC0"/>
</svg>
