<svg width="77" height="111" viewBox="0 0 77 111" fill="none" xmlns="http://www.w3.org/2000/svg">
<path d="M33.2791 60.9666C24.1118 60.9666 16.6541 53.5089 16.6541 44.3416C16.6541 35.1743 24.1118 27.7166 33.2791 27.7166C42.4464 27.7166 49.9041 35.1743 49.9041 44.3416C49.9041 53.5089 42.4464 60.9666 33.2791 60.9666ZM33.2791 33.2583C27.168 33.2583 22.1958 38.2306 22.1958 44.3416C22.1958 50.4527 27.168 55.425 33.2791 55.425C39.3902 55.425 44.3624 50.4527 44.3624 44.3416C44.3624 38.2306 39.3902 33.2583 33.2791 33.2583ZM71.2686 41.5708H76.8262C75.8807 18.4898 56.7141 0 33.2791 0V5.55829C53.6489 5.55829 70.3265 21.555 71.2686 41.5708ZM60.7997 47.1125C60.3148 52.7393 58.7195 58.0434 56.3227 61.775L56.277 61.8485C52.7837 67.6741 38.9129 90.5903 33.2791 99.8941C27.646 90.5903 13.7745 67.6741 10.2826 61.8485L10.2362 61.775C7.3337 57.2565 5.59985 50.4312 5.59985 43.518C5.59985 28.71 18.0167 16.6624 33.2791 16.6624C47.8655 16.6624 59.8445 27.6695 60.8773 41.5708H66.4931C65.4568 24.5787 50.9584 11.0626 33.2791 11.0626C14.9293 11.0626 0 25.6219 0 43.518C0 51.5604 2.0047 59.3014 5.5001 64.7634C9.94314 72.1754 30.6745 106.405 30.8837 106.75L33.2791 110.705L35.6745 106.75C35.8837 106.405 56.6144 72.1754 61.0581 64.7641C64.0298 60.1215 65.9174 53.8324 66.4196 47.1125H60.7997Z" fill="#007BC0"/>
</svg>
