<svg width="111" height="111" viewBox="0 0 111 111" fill="none" xmlns="http://www.w3.org/2000/svg">
<path d="M27.7083 55.4167H33.25V72.0417H27.7083V55.4167ZM27.7083 88.6667V102.521H33.25V88.6667H27.7083ZM22.1667 8.3125C22.1667 3.72677 25.8934 0 30.4792 0C35.0649 0 38.7917 3.72677 38.7917 8.3125C38.7917 11.9215 36.4711 14.9971 33.25 16.1401V38.7917H27.7083V16.1401C24.4872 14.9971 22.1667 11.9215 22.1667 8.3125ZM27.7083 8.3125C27.7083 9.84339 28.9483 11.0833 30.4792 11.0833C32.0101 11.0833 33.25 9.84339 33.25 8.3125C33.25 6.78161 32.0101 5.54167 30.4792 5.54167C28.9483 5.54167 27.7083 6.78161 27.7083 8.3125ZM60.9583 72.0417H66.5V55.4167H60.9583V72.0417ZM60.9583 88.6667V103.214H66.5V88.6667H60.9583ZM55.4167 8.3125C55.4167 3.72677 59.1434 0 63.7292 0C68.3149 0 72.0417 3.72677 72.0417 8.3125C72.0417 11.9215 69.7211 14.9971 66.5 16.1401V38.7917H60.9583V16.1401C57.7372 14.9971 55.4167 11.9215 55.4167 8.3125ZM60.9583 8.3125C60.9583 9.84339 62.1983 11.0833 63.7292 11.0833C65.2601 11.0833 66.5 9.84339 66.5 8.3125C66.5 6.78161 65.2601 5.54167 63.7292 5.54167C62.1983 5.54167 60.9583 6.78161 60.9583 8.3125ZM49.9027 38.7917H44.361V55.4167H49.9027V38.7917ZM49.9027 22.1667V8.3125H44.361V22.1667H49.9027ZM55.4167 102.521C55.4167 107.107 51.6899 110.833 47.1042 110.833C42.5184 110.833 38.7917 107.107 38.7917 102.521C38.7917 98.898 41.1192 95.8223 44.361 94.6863V72.0417H49.9027V94.7002C53.11 95.857 55.4167 98.9188 55.4167 102.521ZM49.875 102.521C49.875 100.99 48.6351 99.75 47.1042 99.75C45.5733 99.75 44.3333 100.99 44.3333 102.521C44.3333 104.052 45.5733 105.292 47.1042 105.292C48.6351 105.292 49.875 104.052 49.875 102.521ZM77.5833 55.4167H83.125V38.7917H77.5833V55.4167ZM83.125 22.1667V8.3125H77.5833V22.1667H83.125ZM88.6667 102.521C88.6667 107.107 84.9399 110.833 80.3542 110.833C75.7684 110.833 72.0417 107.107 72.0417 102.521C72.0417 98.9118 74.3622 95.8362 77.5833 94.6932V72.0417H83.125V94.6932C86.3461 95.8362 88.6667 98.9118 88.6667 102.521ZM83.125 102.521C83.125 100.99 81.8851 99.75 80.3542 99.75C78.8233 99.75 77.5833 100.99 77.5833 102.521C77.5833 104.052 78.8233 105.292 80.3542 105.292C81.8851 105.292 83.125 104.052 83.125 102.521ZM94.6932 27.7083C95.8362 24.4872 98.9118 22.1667 102.521 22.1667C107.107 22.1667 110.833 25.8934 110.833 30.4792C110.833 35.0649 107.107 38.7917 102.521 38.7917C98.9118 38.7917 95.8362 36.4711 94.6932 33.25H72.0417V27.7083H94.6932ZM99.75 30.4792C99.75 32.0101 100.99 33.25 102.521 33.25C104.052 33.25 105.292 32.0101 105.292 30.4792C105.292 28.9483 104.052 27.7083 102.521 27.7083C100.99 27.7083 99.75 28.9483 99.75 30.4792ZM38.7917 33.25H55.4167V27.7083H38.7917V33.25ZM22.1667 27.7083H8.3125V33.25H22.1667V27.7083ZM38.7917 66.5H55.4167V60.9583H38.7917V66.5ZM8.3125 66.5H22.1667V60.9583H8.3125V66.5ZM110.833 63.7292C110.833 68.3149 107.107 72.0417 102.521 72.0417C98.9118 72.0417 95.8362 69.7211 94.6932 66.5H72.0417V60.9583H94.6932C95.8362 57.7372 98.9118 55.4167 102.521 55.4167C107.107 55.4167 110.833 59.1434 110.833 63.7292ZM105.292 63.7292C105.292 62.1983 104.052 60.9583 102.521 60.9583C100.99 60.9583 99.75 62.1983 99.75 63.7292C99.75 65.2601 100.99 66.5 102.521 66.5C104.052 66.5 105.292 65.2601 105.292 63.7292ZM72.0417 44.361H55.4167V49.9027H72.0417V44.361ZM88.6667 49.9027H102.521V44.361H88.6667V49.9027ZM0 47.1042C0 42.5184 3.72677 38.7917 8.3125 38.7917C11.9354 38.7917 15.011 41.1192 16.147 44.361H38.7917V49.9027H16.1332C14.9764 53.11 11.9146 55.4167 8.3125 55.4167C3.72677 55.4167 0 51.6899 0 47.1042ZM5.54167 47.1042C5.54167 48.6351 6.78161 49.875 8.3125 49.875C9.84339 49.875 11.0833 48.6351 11.0833 47.1042C11.0833 45.5733 9.84339 44.3333 8.3125 44.3333C6.78161 44.3333 5.54167 45.5733 5.54167 47.1042ZM16.1401 83.125C14.9971 86.3461 11.9215 88.6667 8.3125 88.6667C3.72677 88.6667 0 84.9399 0 80.3542C0 75.7684 3.72677 72.0417 8.3125 72.0417C11.9215 72.0417 14.9971 74.3622 16.1401 77.5833H38.7917V83.125H16.1401ZM11.0833 80.3542C11.0833 78.8233 9.84339 77.5833 8.3125 77.5833C6.78161 77.5833 5.54167 78.8233 5.54167 80.3542C5.54167 81.8851 6.78161 83.125 8.3125 83.125C9.84339 83.125 11.0833 81.8851 11.0833 80.3542ZM72.0417 77.5833H55.4167V83.125H72.0417V77.5833ZM88.6667 83.125H102.521V77.5833H88.6667V83.125Z" fill="#007BC0"/>
</svg>
