<svg width="89" height="111" viewBox="0 0 89 111" fill="none" xmlns="http://www.w3.org/2000/svg">
<path d="M11.1013 99.8269L0 99.7098L0.109449 0L69.4253 0.0921298L69.4184 5.6338L5.64488 5.54859L5.5479 94.2263L11.1602 94.2852L11.1013 99.8269ZM88.817 11.1755H16.7753V110.925H88.817V11.1755ZM22.317 16.7171H83.2753V105.384H22.317V16.7171ZM77.7337 22.2588H55.567V44.4255H77.7337V22.2588ZM61.1087 27.8005H72.192V38.8838H61.1087V27.8005ZM77.7337 49.9671H55.567V72.1338H77.7337V49.9671ZM61.1087 55.5088H72.192V66.5921H61.1087V55.5088ZM77.7337 77.6755H55.567V99.8421H77.7337V77.6755ZM61.1087 83.2171H72.192V94.3005H61.1087V83.2171ZM50.0253 77.6755H27.8587V99.8421H50.0253V77.6755ZM33.4003 83.2171H44.4837V94.3005H33.4003V83.2171ZM47.8294 56.7758L43.9101 52.8564L34.7857 61.9808L31.8964 59.0908L27.9778 63.0101L34.7857 69.8181L47.8294 56.7758ZM47.8294 29.0674L43.9101 25.1481L34.7857 34.2724L31.8971 31.3825L27.9778 35.3018L34.7857 42.1097L47.8294 29.0674Z" fill="#007BC0"/>
</svg>
